<mxfile host="app.diagrams.net" modified="2021-10-26T12:02:34.912Z" agent="5.0 (X11; Linux x86_64) AppleWebKit/537.36 (KHTML, like Gecko) Chrome/92.0.4515.131 Safari/537.36" etag="vvy2ciokldXn9nGaZyF6" version="15.5.8" type="github">
  <diagram id="WiQCbs44LWPuVq2uQzzB" name="Page-1">
    <mxGraphModel dx="694" dy="761" grid="1" gridSize="10" guides="1" tooltips="1" connect="1" arrows="1" fold="1" page="1" pageScale="1" pageWidth="2000" pageHeight="2000" math="0" shadow="0">
      <root>
        <mxCell id="0" />
        <mxCell id="1" parent="0" />
        <mxCell id="f3yNmSJpMfuCNNHlSyYO-7" style="edgeStyle=orthogonalEdgeStyle;rounded=0;orthogonalLoop=1;jettySize=auto;html=1;" edge="1" parent="1" source="f3yNmSJpMfuCNNHlSyYO-1" target="f3yNmSJpMfuCNNHlSyYO-3">
          <mxGeometry relative="1" as="geometry" />
        </mxCell>
        <mxCell id="f3yNmSJpMfuCNNHlSyYO-8" style="edgeStyle=orthogonalEdgeStyle;rounded=0;orthogonalLoop=1;jettySize=auto;html=1;" edge="1" parent="1" source="f3yNmSJpMfuCNNHlSyYO-1" target="f3yNmSJpMfuCNNHlSyYO-4">
          <mxGeometry relative="1" as="geometry" />
        </mxCell>
        <mxCell id="f3yNmSJpMfuCNNHlSyYO-9" style="edgeStyle=orthogonalEdgeStyle;rounded=0;orthogonalLoop=1;jettySize=auto;html=1;" edge="1" parent="1" source="f3yNmSJpMfuCNNHlSyYO-1" target="f3yNmSJpMfuCNNHlSyYO-5">
          <mxGeometry relative="1" as="geometry" />
        </mxCell>
        <mxCell id="f3yNmSJpMfuCNNHlSyYO-1" value="Användaren går&lt;br&gt;in på sidan" style="ellipse;whiteSpace=wrap;html=1;" vertex="1" parent="1">
          <mxGeometry x="235" y="40" width="120" height="80" as="geometry" />
        </mxCell>
        <mxCell id="f3yNmSJpMfuCNNHlSyYO-14" style="edgeStyle=orthogonalEdgeStyle;rounded=0;orthogonalLoop=1;jettySize=auto;html=1;" edge="1" parent="1" source="f3yNmSJpMfuCNNHlSyYO-3" target="f3yNmSJpMfuCNNHlSyYO-11">
          <mxGeometry relative="1" as="geometry" />
        </mxCell>
        <mxCell id="f3yNmSJpMfuCNNHlSyYO-3" value="Användaren&lt;br&gt;trycker på&lt;br&gt;arbetslivserfarenheter" style="shape=parallelogram;perimeter=parallelogramPerimeter;whiteSpace=wrap;html=1;fixedSize=1;" vertex="1" parent="1">
          <mxGeometry x="220" y="150" width="150" height="60" as="geometry" />
        </mxCell>
        <mxCell id="f3yNmSJpMfuCNNHlSyYO-12" style="edgeStyle=orthogonalEdgeStyle;rounded=0;orthogonalLoop=1;jettySize=auto;html=1;" edge="1" parent="1" source="f3yNmSJpMfuCNNHlSyYO-4" target="f3yNmSJpMfuCNNHlSyYO-11">
          <mxGeometry relative="1" as="geometry">
            <Array as="points">
              <mxPoint x="125" y="240" />
              <mxPoint x="295" y="240" />
            </Array>
          </mxGeometry>
        </mxCell>
        <mxCell id="f3yNmSJpMfuCNNHlSyYO-4" value="Användaren&lt;br&gt;trycker på&lt;br&gt;utbildning" style="shape=parallelogram;perimeter=parallelogramPerimeter;whiteSpace=wrap;html=1;fixedSize=1;" vertex="1" parent="1">
          <mxGeometry x="50" y="150" width="150" height="60" as="geometry" />
        </mxCell>
        <mxCell id="f3yNmSJpMfuCNNHlSyYO-13" style="edgeStyle=orthogonalEdgeStyle;rounded=0;orthogonalLoop=1;jettySize=auto;html=1;" edge="1" parent="1" source="f3yNmSJpMfuCNNHlSyYO-5" target="f3yNmSJpMfuCNNHlSyYO-11">
          <mxGeometry relative="1" as="geometry">
            <Array as="points">
              <mxPoint x="465" y="240" />
              <mxPoint x="295" y="240" />
            </Array>
          </mxGeometry>
        </mxCell>
        <mxCell id="f3yNmSJpMfuCNNHlSyYO-5" value="Användaren&lt;br&gt;trycker på&amp;nbsp;&lt;br&gt;projekt" style="shape=parallelogram;perimeter=parallelogramPerimeter;whiteSpace=wrap;html=1;fixedSize=1;" vertex="1" parent="1">
          <mxGeometry x="390" y="150" width="150" height="60" as="geometry" />
        </mxCell>
        <mxCell id="f3yNmSJpMfuCNNHlSyYO-11" value="Hämta innehåll från&amp;nbsp;&lt;br&gt;REST endpoint" style="rounded=0;whiteSpace=wrap;html=1;" vertex="1" parent="1">
          <mxGeometry x="235" y="270" width="120" height="60" as="geometry" />
        </mxCell>
      </root>
    </mxGraphModel>
  </diagram>
</mxfile>
